<?xml version="1.0" standalone="no"?>
<!DOCTYPE svg PUBLIC "-//W3C//DTD SVG 20010904//EN"
 "http://www.w3.org/TR/2001/REC-SVG-20010904/DTD/svg10.dtd">
<svg version="1.0" xmlns="http://www.w3.org/2000/svg"
 width="400.000000pt" height="400.000000pt" viewBox="0 0 400.000000 400.000000"
 preserveAspectRatio="xMidYMid meet">
<metadata>
Created by potrace 1.14, written by Peter Selinger 2001-2017
</metadata>
<g transform="translate(0.000000,400.000000) scale(0.100000,-0.100000)"
fill="#000000" stroke="none">
<path d="M1520 3460 l0 -30 -60 0 -60 0 0 -35 c0 -33 -2 -35 -35 -35 -31 0
-35 -3 -35 -25 0 -21 -5 -25 -30 -25 -28 0 -30 -3 -30 -35 0 -33 -2 -35 -35
-35 -33 0 -35 -2 -35 -35 0 -31 -3 -35 -25 -35 -21 0 -25 -5 -25 -30 0 -28 -3
-30 -35 -30 l-35 0 0 -190 0 -190 -35 0 -35 0 0 -285 0 -285 -60 0 -60 0 0
-195 0 -195 30 0 c25 0 30 -4 30 -25 0 -24 2 -25 65 -25 l65 0 0 -35 c0 -33 2
-35 35 -35 l35 0 0 -125 0 -125 25 0 c25 0 25 0 25 -95 l0 -95 35 0 35 0 0
-65 0 -65 30 0 30 0 0 -65 0 -65 35 0 c32 0 35 -2 35 -30 0 -27 3 -30 30 -30
27 0 30 -3 30 -30 0 -27 3 -30 30 -30 28 0 30 -3 30 -35 l0 -35 65 0 65 0 0
-35 0 -35 60 0 c57 0 60 -1 60 -25 l0 -25 230 0 230 0 0 25 c0 24 3 25 60 25
l60 0 0 35 0 35 65 0 65 0 0 35 c0 32 2 35 30 35 27 0 30 3 30 30 0 27 3 30
30 30 27 0 30 3 30 30 0 28 3 30 35 30 l35 0 0 65 0 65 30 0 30 0 0 65 0 65
36 0 37 0 -7 95 -6 95 30 0 30 0 0 125 0 125 35 0 c33 0 35 2 35 35 l0 35 65
0 c63 0 65 1 65 25 0 21 5 25 30 25 l30 0 0 195 0 195 -60 0 -60 0 0 285 0
285 -35 0 -35 0 0 130 0 130 -35 0 -35 0 0 60 0 60 -30 0 c-27 0 -30 3 -30 30
0 27 -3 30 -30 30 -28 0 -30 3 -30 35 0 32 -2 35 -30 35 -28 0 -30 3 -30 35 0
33 -2 35 -35 35 -31 0 -35 3 -35 25 0 24 -3 25 -60 25 l-60 0 0 35 c0 33 -2
35 -35 35 -32 0 -35 2 -35 30 l0 30 -445 0 -445 0 0 -30z m250 -65 c0 -33 2
-35 35 -35 31 0 35 -3 35 -25 0 -24 2 -25 65 -25 l65 0 0 -35 c0 -32 2 -35 30
-35 28 0 30 -3 30 -35 0 -32 2 -35 30 -35 27 0 30 -3 30 -30 0 -28 3 -30 35
-30 32 0 35 -2 35 -30 0 -28 3 -30 35 -30 l35 0 0 -65 c0 -63 1 -65 25 -65 24
0 25 -3 25 -60 l0 -60 35 0 c33 0 35 -2 35 -35 0 -33 -2 -35 -35 -35 -32 0
-35 -2 -35 -30 0 -25 -4 -30 -25 -30 -22 0 -25 -4 -25 -35 l0 -35 -100 0 -100
0 0 35 c0 32 -2 35 -30 35 -27 0 -30 3 -30 30 0 27 -3 30 -30 30 -27 0 -30 -3
-30 -30 0 -28 -3 -30 -35 -30 -33 0 -35 -2 -35 -35 l0 -35 -60 0 -60 0 0 35
c0 33 -2 35 -35 35 -32 0 -35 2 -35 30 0 27 -3 30 -30 30 -28 0 -30 3 -30 35
0 33 -2 35 -35 35 l-35 0 0 60 c0 57 -1 60 -25 60 l-25 0 0 160 0 160 25 0
c24 0 25 3 25 60 l0 60 35 0 35 0 0 -60 0 -60 -35 0 c-33 0 -35 -2 -35 -35 0
-33 2 -35 35 -35 32 0 35 -2 35 -30 0 -27 3 -30 30 -30 l30 0 0 100 0 100 35
0 35 0 0 60 c0 57 1 60 25 60 22 0 25 -4 25 -35z m320 0 l0 -35 70 0 c68 0 70
-1 70 -25 0 -25 1 -25 90 -25 l90 0 0 -35 c0 -33 2 -35 35 -35 l35 0 0 -95 c0
-95 0 -95 25 -95 l25 0 0 -100 0 -100 -25 0 c-20 0 -25 -5 -25 -25 0 -22 -4
-25 -35 -25 l-35 0 0 60 0 60 -30 0 -30 0 0 65 0 65 -35 0 c-32 0 -35 2 -35
30 0 25 -4 30 -25 30 -21 0 -25 5 -25 30 0 28 -3 30 -35 30 -33 0 -35 2 -35
35 0 33 -2 35 -35 35 -33 0 -35 2 -35 35 0 32 -2 35 -30 35 -25 0 -30 4 -30
25 0 21 -5 25 -30 25 -28 0 -30 3 -30 35 l0 35 60 0 60 0 0 -35z m-690 -385
l0 -160 30 0 30 0 0 -60 0 -60 -95 0 -95 0 0 -30 c0 -28 -3 -30 -35 -30 l-35
0 0 90 0 90 35 0 35 0 0 100 0 100 30 0 30 0 0 60 0 60 35 0 35 0 0 -160z
m1330 -115 l0 -95 30 0 30 0 0 -65 0 -65 -30 0 c-27 0 -30 3 -30 30 l0 30 -65
0 -65 0 0 60 0 60 35 0 35 0 0 70 0 70 30 0 30 0 0 -95z m-1210 -260 l0 -35
65 0 65 0 0 -30 c0 -28 3 -30 35 -30 32 0 35 -2 35 -30 l0 -30 255 0 255 0 0
30 c0 25 4 30 25 30 21 0 25 5 25 30 l0 30 100 0 100 0 0 35 0 35 60 0 60 0 0
-35 c0 -33 2 -35 35 -35 l35 0 0 -60 0 -60 30 0 30 0 0 -125 0 -125 30 0 30 0
0 -130 0 -130 -30 0 -30 0 0 -125 0 -125 30 0 c28 0 30 -3 30 -35 0 -32 -2
-35 -30 -35 l-30 0 0 -65 0 -65 -30 0 -30 0 0 -95 0 -95 -35 0 -35 0 0 -65 c0
-72 0 -72 -82 -59 -34 6 -38 10 -38 35 0 26 -3 29 -35 29 -33 0 -35 -2 -35
-35 0 -33 2 -35 35 -35 l35 0 0 -95 0 -95 -35 0 c-32 0 -35 -2 -35 -30 0 -27
-3 -30 -30 -30 -27 0 -30 -3 -30 -30 l0 -30 -60 0 -60 0 0 -30 c0 -28 -3 -30
-35 -30 -33 0 -35 -2 -35 -35 l0 -35 -160 0 -160 0 0 35 0 35 -60 0 -60 0 0
30 c0 28 -3 30 -35 30 -32 0 -35 2 -35 30 l0 30 -65 0 -65 0 0 124 0 124 -60
7 -60 7 0 59 0 59 -35 0 -35 0 0 65 0 65 -30 0 -30 0 0 255 0 255 -35 0 -35 0
0 255 0 255 35 0 35 0 0 60 0 60 30 0 c28 0 30 3 30 35 l0 35 95 0 95 0 0 -35z
m-370 -160 l0 -65 -35 0 -35 0 0 65 0 65 35 0 35 0 0 -65z m1770 -5 l0 -60
-35 0 -35 0 0 60 0 60 35 0 35 0 0 -60z m-1840 -535 l0 -95 -35 0 -35 0 0 95
0 95 35 0 35 0 0 -95z m1910 0 l0 -95 -35 0 -35 0 0 95 0 95 35 0 35 0 0 -95z"/>
<path d="M1650 3050 l0 -60 35 0 35 0 0 -70 c0 -68 1 -70 25 -70 20 0 25 -5
25 -25 0 -22 4 -25 35 -25 33 0 35 -2 35 -35 0 -33 2 -35 35 -35 33 0 35 2 35
35 0 33 -2 35 -35 35 -31 0 -35 3 -35 25 0 22 -4 25 -35 25 l-35 0 0 70 c0 68
-1 70 -25 70 -24 0 -25 3 -25 60 l0 60 -35 0 -35 0 0 -60z"/>
<path d="M1270 2060 l0 -30 65 0 65 0 0 -130 0 -130 220 0 220 0 0 -25 c0 -22
4 -25 35 -25 l35 0 0 60 0 60 30 0 c28 0 30 3 30 35 0 32 2 35 30 35 28 0 30
-3 30 -35 0 -32 2 -35 30 -35 l30 0 0 -60 0 -60 35 0 c31 0 35 3 35 25 l0 25
220 0 220 0 0 130 0 130 65 0 65 0 0 30 0 30 -190 0 -190 0 0 -30 0 -30 -60 0
-60 0 0 -30 c0 -28 -3 -30 -35 -30 -32 0 -35 -2 -35 -30 0 -28 -3 -30 -35 -30
l-35 0 0 60 0 60 -30 0 c-27 0 -30 -3 -30 -30 0 -27 -3 -30 -30 -30 -27 0 -30
3 -30 30 0 27 -3 30 -30 30 l-30 0 0 -60 0 -60 -35 0 c-32 0 -35 2 -35 30 0
28 -3 30 -35 30 -32 0 -35 2 -35 30 l0 30 -60 0 -60 0 0 30 0 30 -190 0 -190
0 0 -30z m250 -155 l0 -65 -30 0 -30 0 0 65 0 65 30 0 30 0 0 -65z m1020 0 l0
-65 -30 0 -30 0 0 65 0 65 30 0 30 0 0 -65z m-770 -30 l0 -35 -60 0 -60 0 0
35 0 35 60 0 60 0 0 -35z m580 0 l0 -35 -60 0 -60 0 0 35 0 35 60 0 60 0 0
-35z"/>
<path d="M1770 1620 c0 -28 3 -30 35 -30 l35 0 0 -60 0 -60 35 0 35 0 0 90 0
90 -70 0 -70 0 0 -30z"/>
<path d="M2090 1560 l0 -90 35 0 35 0 0 60 0 60 35 0 c32 0 35 2 35 30 l0 30
-70 0 -70 0 0 -90z"/>
<path d="M1720 1430 c0 -28 -3 -30 -35 -30 -33 0 -35 -2 -35 -35 0 -32 -2 -35
-30 -35 -27 0 -30 -3 -30 -30 0 -28 -3 -30 -35 -30 -32 0 -35 -2 -35 -30 0
-28 3 -30 35 -30 32 0 35 2 35 30 l0 30 65 0 65 0 0 65 c0 63 1 65 25 65 24 0
25 -2 25 -65 l0 -65 35 0 c32 0 35 -2 35 -30 l0 -30 -95 0 -95 0 0 -65 0 -65
35 0 35 0 0 -65 c0 -63 1 -65 25 -65 21 0 25 -5 25 -30 l0 -30 230 0 230 0 0
30 c0 25 4 30 25 30 24 0 25 2 25 65 l0 65 35 0 35 0 0 65 0 65 -130 0 -130 0
0 30 0 30 70 0 70 0 0 65 c0 63 1 65 25 65 24 0 25 -2 25 -65 l0 -65 65 0 65
0 0 30 c0 27 -3 30 -30 30 -28 0 -30 3 -30 35 0 33 -2 35 -35 35 -32 0 -35 2
-35 30 l0 30 -60 0 -60 0 0 -65 0 -65 -65 0 -65 0 0 -30 c0 -27 -3 -30 -30
-30 -27 0 -30 3 -30 30 l0 30 -65 0 -65 0 0 65 0 65 -60 0 -60 0 0 -30z m440
-315 l0 -35 -195 0 -195 0 0 35 0 35 195 0 195 0 0 -35z m0 -135 l0 -30 -160
0 -160 0 0 30 0 30 160 0 160 0 0 -30z"/>
</g>
</svg>
